<svg xmlns="http://www.w3.org/2000/svg" xmlns:xlink="http://www.w3.org/1999/xlink" width="1000" zoomAndPan="magnify" viewBox="0 0 750 749.999995" height="1000" preserveAspectRatio="xMidYMid meet" version="1.0"><defs><g/><clipPath id="a8869af37a"><path d="M 35.25 0 L 714.75 0 C 734.21875 0 750 15.78125 750 35.25 L 750 714.75 C 750 734.21875 734.21875 750 714.75 750 L 35.25 750 C 15.78125 750 0 734.21875 0 714.75 L 0 35.25 C 0 15.78125 15.78125 0 35.25 0 Z M 35.25 0 " clip-rule="nonzero"/></clipPath><clipPath id="8df87ae11a"><path d="M 0 0 L 750 0 L 750 750 L 0 750 Z M 0 0 " clip-rule="nonzero"/></clipPath><clipPath id="73937c14bb"><path d="M 35.25 0 L 714.75 0 C 734.21875 0 750 15.78125 750 35.25 L 750 714.75 C 750 734.21875 734.21875 750 714.75 750 L 35.25 750 C 15.78125 750 0 734.21875 0 714.75 L 0 35.25 C 0 15.78125 15.78125 0 35.25 0 Z M 35.25 0 " clip-rule="nonzero"/></clipPath><linearGradient x1="0" gradientTransform="matrix(2.929687, 0, 0, 2.929687, 0.00000265, 0.00002)" y1="128" x2="255.999999" gradientUnits="userSpaceOnUse" y2="128" id="96bc2dca7f"><stop stop-opacity="1" stop-color="rgb(94.509888%, 60.389709%, 36.079407%)" offset="0"/><stop stop-opacity="1" stop-color="rgb(94.522095%, 60.488892%, 36.108398%)" offset="0.0078125"/><stop stop-opacity="1" stop-color="rgb(94.546509%, 60.687256%, 36.166382%)" offset="0.015625"/><stop stop-opacity="1" stop-color="rgb(94.570923%, 60.887146%, 36.224365%)" offset="0.0234375"/><stop stop-opacity="1" stop-color="rgb(94.595337%, 61.08551%, 36.282349%)" offset="0.03125"/><stop stop-opacity="1" stop-color="rgb(94.619751%, 61.2854%, 36.340332%)" offset="0.0390625"/><stop stop-opacity="1" stop-color="rgb(94.644165%, 61.483765%, 36.399841%)" offset="0.046875"/><stop stop-opacity="1" stop-color="rgb(94.668579%, 61.683655%, 36.457825%)" offset="0.0546875"/><stop stop-opacity="1" stop-color="rgb(94.692993%, 61.882019%, 36.515808%)" offset="0.0625"/><stop stop-opacity="1" stop-color="rgb(94.717407%, 62.081909%, 36.573792%)" offset="0.0703125"/><stop stop-opacity="1" stop-color="rgb(94.741821%, 62.280273%, 36.631775%)" offset="0.078125"/><stop stop-opacity="1" stop-color="rgb(94.766235%, 62.480164%, 36.689758%)" offset="0.0859375"/><stop stop-opacity="1" stop-color="rgb(94.790649%, 62.678528%, 36.747742%)" offset="0.09375"/><stop stop-opacity="1" stop-color="rgb(94.815063%, 62.878418%, 36.807251%)" offset="0.101562"/><stop stop-opacity="1" stop-color="rgb(94.841003%, 63.076782%, 36.865234%)" offset="0.109375"/><stop stop-opacity="1" stop-color="rgb(94.865417%, 63.276672%, 36.923218%)" offset="0.117188"/><stop stop-opacity="1" stop-color="rgb(94.889832%, 63.475037%, 36.981201%)" offset="0.125"/><stop stop-opacity="1" stop-color="rgb(94.914246%, 63.674927%, 37.039185%)" offset="0.132812"/><stop stop-opacity="1" stop-color="rgb(94.93866%, 63.873291%, 37.097168%)" offset="0.140625"/><stop stop-opacity="1" stop-color="rgb(94.963074%, 64.073181%, 37.155151%)" offset="0.148438"/><stop stop-opacity="1" stop-color="rgb(94.987488%, 64.271545%, 37.214661%)" offset="0.15625"/><stop stop-opacity="1" stop-color="rgb(95.011902%, 64.471436%, 37.272644%)" offset="0.164063"/><stop stop-opacity="1" stop-color="rgb(95.036316%, 64.6698%, 37.330627%)" offset="0.171875"/><stop stop-opacity="1" stop-color="rgb(95.06073%, 64.86969%, 37.388611%)" offset="0.179688"/><stop stop-opacity="1" stop-color="rgb(95.085144%, 65.068054%, 37.446594%)" offset="0.1875"/><stop stop-opacity="1" stop-color="rgb(95.109558%, 65.267944%, 37.504578%)" offset="0.195313"/><stop stop-opacity="1" stop-color="rgb(95.133972%, 65.466309%, 37.562561%)" offset="0.203125"/><stop stop-opacity="1" stop-color="rgb(95.159912%, 65.666199%, 37.62207%)" offset="0.210938"/><stop stop-opacity="1" stop-color="rgb(95.184326%, 65.864563%, 37.680054%)" offset="0.21875"/><stop stop-opacity="1" stop-color="rgb(95.20874%, 66.064453%, 37.738037%)" offset="0.226563"/><stop stop-opacity="1" stop-color="rgb(95.233154%, 66.262817%, 37.796021%)" offset="0.234375"/><stop stop-opacity="1" stop-color="rgb(95.257568%, 66.462708%, 37.854004%)" offset="0.242188"/><stop stop-opacity="1" stop-color="rgb(95.281982%, 66.661072%, 37.911987%)" offset="0.25"/><stop stop-opacity="1" stop-color="rgb(95.306396%, 66.860962%, 37.969971%)" offset="0.257812"/><stop stop-opacity="1" stop-color="rgb(95.330811%, 67.059326%, 38.02948%)" offset="0.265625"/><stop stop-opacity="1" stop-color="rgb(95.355225%, 67.259216%, 38.087463%)" offset="0.273438"/><stop stop-opacity="1" stop-color="rgb(95.379639%, 67.457581%, 38.145447%)" offset="0.28125"/><stop stop-opacity="1" stop-color="rgb(95.404053%, 67.657471%, 38.20343%)" offset="0.289062"/><stop stop-opacity="1" stop-color="rgb(95.428467%, 67.857361%, 38.261414%)" offset="0.296875"/><stop stop-opacity="1" stop-color="rgb(95.452881%, 68.055725%, 38.319397%)" offset="0.304688"/><stop stop-opacity="1" stop-color="rgb(95.478821%, 68.255615%, 38.378906%)" offset="0.3125"/><stop stop-opacity="1" stop-color="rgb(95.503235%, 68.453979%, 38.43689%)" offset="0.320312"/><stop stop-opacity="1" stop-color="rgb(95.527649%, 68.65387%, 38.494873%)" offset="0.328125"/><stop stop-opacity="1" stop-color="rgb(95.552063%, 68.852234%, 38.552856%)" offset="0.335938"/><stop stop-opacity="1" stop-color="rgb(95.576477%, 69.052124%, 38.61084%)" offset="0.34375"/><stop stop-opacity="1" stop-color="rgb(95.600891%, 69.250488%, 38.668823%)" offset="0.351562"/><stop stop-opacity="1" stop-color="rgb(95.625305%, 69.450378%, 38.726807%)" offset="0.359375"/><stop stop-opacity="1" stop-color="rgb(95.649719%, 69.648743%, 38.786316%)" offset="0.367188"/><stop stop-opacity="1" stop-color="rgb(95.674133%, 69.848633%, 38.844299%)" offset="0.375"/><stop stop-opacity="1" stop-color="rgb(95.698547%, 70.046997%, 38.902283%)" offset="0.382812"/><stop stop-opacity="1" stop-color="rgb(95.722961%, 70.246887%, 38.960266%)" offset="0.390625"/><stop stop-opacity="1" stop-color="rgb(95.747375%, 70.445251%, 39.01825%)" offset="0.398438"/><stop stop-opacity="1" stop-color="rgb(95.77179%, 70.645142%, 39.076233%)" offset="0.40625"/><stop stop-opacity="1" stop-color="rgb(95.797729%, 70.843506%, 39.134216%)" offset="0.414062"/><stop stop-opacity="1" stop-color="rgb(95.822144%, 71.043396%, 39.193726%)" offset="0.421875"/><stop stop-opacity="1" stop-color="rgb(95.846558%, 71.24176%, 39.251709%)" offset="0.429688"/><stop stop-opacity="1" stop-color="rgb(95.870972%, 71.44165%, 39.309692%)" offset="0.4375"/><stop stop-opacity="1" stop-color="rgb(95.895386%, 71.640015%, 39.367676%)" offset="0.445312"/><stop stop-opacity="1" stop-color="rgb(95.9198%, 71.839905%, 39.425659%)" offset="0.453125"/><stop stop-opacity="1" stop-color="rgb(95.944214%, 72.038269%, 39.483643%)" offset="0.460938"/><stop stop-opacity="1" stop-color="rgb(95.968628%, 72.238159%, 39.541626%)" offset="0.46875"/><stop stop-opacity="1" stop-color="rgb(95.993042%, 72.436523%, 39.601135%)" offset="0.476562"/><stop stop-opacity="1" stop-color="rgb(96.017456%, 72.636414%, 39.659119%)" offset="0.484375"/><stop stop-opacity="1" stop-color="rgb(96.04187%, 72.834778%, 39.717102%)" offset="0.492188"/><stop stop-opacity="1" stop-color="rgb(96.066284%, 73.034668%, 39.775085%)" offset="0.5"/><stop stop-opacity="1" stop-color="rgb(96.090698%, 73.233032%, 39.833069%)" offset="0.507812"/><stop stop-opacity="1" stop-color="rgb(96.116638%, 73.432922%, 39.891052%)" offset="0.515625"/><stop stop-opacity="1" stop-color="rgb(96.141052%, 73.631287%, 39.949036%)" offset="0.523438"/><stop stop-opacity="1" stop-color="rgb(96.165466%, 73.831177%, 40.008545%)" offset="0.53125"/><stop stop-opacity="1" stop-color="rgb(96.18988%, 74.029541%, 40.066528%)" offset="0.539062"/><stop stop-opacity="1" stop-color="rgb(96.214294%, 74.229431%, 40.124512%)" offset="0.546875"/><stop stop-opacity="1" stop-color="rgb(96.238708%, 74.427795%, 40.182495%)" offset="0.554688"/><stop stop-opacity="1" stop-color="rgb(96.263123%, 74.627686%, 40.240479%)" offset="0.5625"/><stop stop-opacity="1" stop-color="rgb(96.287537%, 74.82605%, 40.298462%)" offset="0.570313"/><stop stop-opacity="1" stop-color="rgb(96.311951%, 75.02594%, 40.356445%)" offset="0.578125"/><stop stop-opacity="1" stop-color="rgb(96.336365%, 75.224304%, 40.415955%)" offset="0.585938"/><stop stop-opacity="1" stop-color="rgb(96.360779%, 75.424194%, 40.473938%)" offset="0.59375"/><stop stop-opacity="1" stop-color="rgb(96.385193%, 75.622559%, 40.531921%)" offset="0.601562"/><stop stop-opacity="1" stop-color="rgb(96.409607%, 75.822449%, 40.589905%)" offset="0.609375"/><stop stop-opacity="1" stop-color="rgb(96.435547%, 76.020813%, 40.647888%)" offset="0.617188"/><stop stop-opacity="1" stop-color="rgb(96.459961%, 76.220703%, 40.705872%)" offset="0.625"/><stop stop-opacity="1" stop-color="rgb(96.484375%, 76.419067%, 40.763855%)" offset="0.632812"/><stop stop-opacity="1" stop-color="rgb(96.508789%, 76.618958%, 40.823364%)" offset="0.640625"/><stop stop-opacity="1" stop-color="rgb(96.533203%, 76.817322%, 40.881348%)" offset="0.648438"/><stop stop-opacity="1" stop-color="rgb(96.557617%, 77.017212%, 40.939331%)" offset="0.65625"/><stop stop-opacity="1" stop-color="rgb(96.582031%, 77.215576%, 40.997314%)" offset="0.664063"/><stop stop-opacity="1" stop-color="rgb(96.606445%, 77.415466%, 41.055298%)" offset="0.671875"/><stop stop-opacity="1" stop-color="rgb(96.630859%, 77.613831%, 41.113281%)" offset="0.679688"/><stop stop-opacity="1" stop-color="rgb(96.655273%, 77.813721%, 41.171265%)" offset="0.6875"/><stop stop-opacity="1" stop-color="rgb(96.679688%, 78.012085%, 41.230774%)" offset="0.695313"/><stop stop-opacity="1" stop-color="rgb(96.704102%, 78.211975%, 41.288757%)" offset="0.703125"/><stop stop-opacity="1" stop-color="rgb(96.728516%, 78.410339%, 41.346741%)" offset="0.710937"/><stop stop-opacity="1" stop-color="rgb(96.754456%, 78.610229%, 41.404724%)" offset="0.71875"/><stop stop-opacity="1" stop-color="rgb(96.77887%, 78.808594%, 41.462708%)" offset="0.726562"/><stop stop-opacity="1" stop-color="rgb(96.803284%, 79.008484%, 41.520691%)" offset="0.734375"/><stop stop-opacity="1" stop-color="rgb(96.827698%, 79.208374%, 41.578674%)" offset="0.742188"/><stop stop-opacity="1" stop-color="rgb(96.852112%, 79.406738%, 41.638184%)" offset="0.75"/><stop stop-opacity="1" stop-color="rgb(96.876526%, 79.606628%, 41.696167%)" offset="0.757812"/><stop stop-opacity="1" stop-color="rgb(96.90094%, 79.804993%, 41.75415%)" offset="0.765625"/><stop stop-opacity="1" stop-color="rgb(96.925354%, 80.004883%, 41.812134%)" offset="0.773438"/><stop stop-opacity="1" stop-color="rgb(96.949768%, 80.203247%, 41.870117%)" offset="0.78125"/><stop stop-opacity="1" stop-color="rgb(96.974182%, 80.403137%, 41.928101%)" offset="0.789063"/><stop stop-opacity="1" stop-color="rgb(96.998596%, 80.601501%, 41.986084%)" offset="0.796875"/><stop stop-opacity="1" stop-color="rgb(97.02301%, 80.801392%, 42.045593%)" offset="0.804688"/><stop stop-opacity="1" stop-color="rgb(97.047424%, 80.999756%, 42.103577%)" offset="0.8125"/><stop stop-opacity="1" stop-color="rgb(97.073364%, 81.199646%, 42.16156%)" offset="0.820313"/><stop stop-opacity="1" stop-color="rgb(97.097778%, 81.39801%, 42.219543%)" offset="0.828125"/><stop stop-opacity="1" stop-color="rgb(97.122192%, 81.5979%, 42.277527%)" offset="0.835937"/><stop stop-opacity="1" stop-color="rgb(97.146606%, 81.796265%, 42.33551%)" offset="0.84375"/><stop stop-opacity="1" stop-color="rgb(97.171021%, 81.996155%, 42.393494%)" offset="0.851562"/><stop stop-opacity="1" stop-color="rgb(97.195435%, 82.194519%, 42.453003%)" offset="0.859375"/><stop stop-opacity="1" stop-color="rgb(97.219849%, 82.394409%, 42.510986%)" offset="0.867188"/><stop stop-opacity="1" stop-color="rgb(97.244263%, 82.592773%, 42.56897%)" offset="0.875"/><stop stop-opacity="1" stop-color="rgb(97.268677%, 82.792664%, 42.626953%)" offset="0.882812"/><stop stop-opacity="1" stop-color="rgb(97.293091%, 82.991028%, 42.684937%)" offset="0.890625"/><stop stop-opacity="1" stop-color="rgb(97.317505%, 83.190918%, 42.74292%)" offset="0.898438"/><stop stop-opacity="1" stop-color="rgb(97.341919%, 83.389282%, 42.800903%)" offset="0.90625"/><stop stop-opacity="1" stop-color="rgb(97.366333%, 83.589172%, 42.860413%)" offset="0.914063"/><stop stop-opacity="1" stop-color="rgb(97.392273%, 83.787537%, 42.918396%)" offset="0.921875"/><stop stop-opacity="1" stop-color="rgb(97.416687%, 83.987427%, 42.976379%)" offset="0.929688"/><stop stop-opacity="1" stop-color="rgb(97.441101%, 84.185791%, 43.034363%)" offset="0.9375"/><stop stop-opacity="1" stop-color="rgb(97.465515%, 84.385681%, 43.092346%)" offset="0.945312"/><stop stop-opacity="1" stop-color="rgb(97.489929%, 84.584045%, 43.15033%)" offset="0.953125"/><stop stop-opacity="1" stop-color="rgb(97.514343%, 84.783936%, 43.208313%)" offset="0.960937"/><stop stop-opacity="1" stop-color="rgb(97.538757%, 84.9823%, 43.267822%)" offset="0.96875"/><stop stop-opacity="1" stop-color="rgb(97.563171%, 85.18219%, 43.325806%)" offset="0.976562"/><stop stop-opacity="1" stop-color="rgb(97.587585%, 85.380554%, 43.383789%)" offset="0.984375"/><stop stop-opacity="1" stop-color="rgb(97.612%, 85.580444%, 43.441772%)" offset="0.992188"/><stop stop-opacity="1" stop-color="rgb(97.636414%, 85.778809%, 43.499756%)" offset="1"/></linearGradient><clipPath id="1d0c1ac597"><rect x="0" width="750" y="0" height="750"/></clipPath><clipPath id="d7fd58379b"><path d="M 246.230469 254.574219 L 486.230469 254.574219 L 486.230469 494.574219 L 246.230469 494.574219 Z M 246.230469 254.574219 " clip-rule="nonzero"/></clipPath></defs><g clip-path="url(#a8869af37a)"><g transform="matrix(1, 0, 0, 1, 0, -0.000000000000042435)"><g clip-path="url(#1d0c1ac597)"><g clip-path="url(#8df87ae11a)"><g clip-path="url(#73937c14bb)"><rect x="-165" fill="url(#96bc2dca7f)" width="1080" height="1079.999992" y="-164.999999"/></g></g></g></g></g><g clip-path="url(#d7fd58379b)"><path fill="#000000" d="M 486.550781 374.738281 C 402.28125 394.5625 386.210938 410.628906 366.386719 494.902344 C 346.570312 410.625 330.5 394.554688 246.230469 374.738281 C 330.5 354.914062 346.570312 338.84375 366.394531 254.574219 C 386.210938 338.84375 402.28125 354.914062 486.550781 374.738281 Z M 486.550781 374.738281 " fill-opacity="1" fill-rule="nonzero"/></g><g fill="#000000" fill-opacity="1"><g transform="translate(27.229493, 495.703407)"><g><path d="M 191.015625 71.484375 C 182.554688 71.222656 174.875 69.789062 167.96875 67.1875 C 161.070312 64.582031 154.890625 61.066406 149.421875 56.640625 C 143.953125 52.210938 139.226562 47.066406 135.25 41.203125 C 131.28125 35.347656 127.960938 29.066406 125.296875 22.359375 C 122.628906 15.660156 120.644531 8.757812 119.34375 1.65625 C 118.039062 -5.4375 117.390625 -12.4375 117.390625 -19.34375 L 117.390625 -52.34375 C 117.390625 -71.09375 112.925781 -84.695312 104 -93.15625 C 95.082031 -101.625 81.445312 -105.925781 63.09375 -106.0625 L 63.09375 -134.375 C 81.445312 -134.375 95.082031 -138.570312 104 -146.96875 C 112.925781 -155.375 117.390625 -169.015625 117.390625 -187.890625 L 117.390625 -221.09375 C 117.390625 -228 117.972656 -235 119.140625 -242.09375 C 120.316406 -249.1875 122.140625 -256.085938 124.609375 -262.796875 C 127.085938 -269.503906 130.242188 -275.785156 134.078125 -281.640625 C 137.921875 -287.503906 142.578125 -292.648438 148.046875 -297.078125 C 153.515625 -301.503906 159.796875 -305.019531 166.890625 -307.625 C 173.992188 -310.226562 182.035156 -311.660156 191.015625 -311.921875 L 195.125 -289.453125 C 185.75 -289.191406 178.289062 -286.976562 172.75 -282.8125 C 167.21875 -278.644531 163.050781 -273.335938 160.25 -266.890625 C 157.457031 -260.453125 155.671875 -253.195312 154.890625 -245.125 C 154.109375 -237.050781 153.71875 -229.039062 153.71875 -221.09375 L 153.71875 -187.890625 C 153.582031 -172.265625 149.929688 -158.5625 142.765625 -146.78125 C 135.609375 -135 124.476562 -126.046875 109.375 -119.921875 C 124.476562 -113.929688 135.609375 -105.046875 142.765625 -93.265625 C 149.929688 -81.484375 153.582031 -67.84375 153.71875 -52.34375 L 153.71875 -19.34375 C 153.71875 -11.269531 154.367188 -3.226562 155.671875 4.78125 C 156.972656 12.789062 159.21875 20.019531 162.40625 26.46875 C 165.59375 32.914062 169.820312 38.222656 175.09375 42.390625 C 180.375 46.554688 187.050781 48.769531 195.125 49.03125 Z M 191.015625 71.484375 "/></g></g></g><g fill="#000000" fill-opacity="1"><g transform="translate(463.540756, 495.703407)"><g><path d="M 63.09375 49.03125 C 71.03125 48.769531 77.664062 46.554688 83 42.390625 C 88.34375 38.222656 92.609375 32.914062 95.796875 26.46875 C 98.992188 20.019531 101.273438 12.789062 102.640625 4.78125 C 104.003906 -3.226562 104.6875 -11.269531 104.6875 -19.34375 L 104.6875 -52.34375 C 104.6875 -67.84375 108.265625 -81.484375 115.421875 -93.265625 C 122.585938 -105.046875 133.722656 -113.929688 148.828125 -119.921875 C 133.722656 -126.046875 122.585938 -135 115.421875 -146.78125 C 108.265625 -158.5625 104.6875 -172.265625 104.6875 -187.890625 L 104.6875 -221.09375 C 104.6875 -229.039062 104.265625 -237.050781 103.421875 -245.125 C 102.578125 -253.195312 100.753906 -260.453125 97.953125 -266.890625 C 95.148438 -273.335938 91.015625 -278.644531 85.546875 -282.8125 C 80.078125 -286.976562 72.65625 -289.191406 63.28125 -289.453125 L 67.1875 -311.921875 C 76.175781 -311.660156 84.21875 -310.226562 91.3125 -307.625 C 98.40625 -305.019531 104.6875 -301.503906 110.15625 -297.078125 C 115.625 -292.648438 120.28125 -287.503906 124.125 -281.640625 C 127.96875 -275.785156 131.125 -269.503906 133.59375 -262.796875 C 136.070312 -256.085938 137.894531 -249.1875 139.0625 -242.09375 C 140.238281 -235 140.828125 -228 140.828125 -221.09375 L 140.828125 -187.890625 C 140.828125 -169.015625 145.316406 -155.375 154.296875 -146.96875 C 163.285156 -138.570312 176.894531 -134.375 195.125 -134.375 L 195.125 -106.0625 C 176.894531 -105.925781 163.285156 -101.625 154.296875 -93.15625 C 145.316406 -84.695312 140.828125 -71.09375 140.828125 -52.34375 L 140.828125 -19.34375 C 140.828125 -8.925781 139.394531 1.585938 136.53125 12.203125 C 133.664062 22.816406 129.203125 32.484375 123.140625 41.203125 C 117.085938 49.929688 109.4375 57.09375 100.1875 62.6875 C 90.945312 68.289062 79.945312 71.222656 67.1875 71.484375 Z M 63.09375 49.03125 "/></g></g></g></svg>