<svg xmlns="http://www.w3.org/2000/svg" xmlns:xlink="http://www.w3.org/1999/xlink" width="1000" zoomAndPan="magnify" viewBox="0 0 750 749.999995" height="1000" preserveAspectRatio="xMidYMid meet" version="1.0"><defs><g/><clipPath id="c07938a6c0"><path d="M 35.25 0 L 714.75 0 C 734.21875 0 750 15.78125 750 35.25 L 750 714.75 C 750 734.21875 734.21875 750 714.75 750 L 35.25 750 C 15.78125 750 0 734.21875 0 714.75 L 0 35.25 C 0 15.78125 15.78125 0 35.25 0 Z M 35.25 0 " clip-rule="nonzero"/></clipPath><clipPath id="2f143bf9c5"><path d="M 0 0 L 750 0 L 750 750 L 0 750 Z M 0 0 " clip-rule="nonzero"/></clipPath><clipPath id="dfdb14209c"><path d="M 35.25 0 L 714.75 0 C 734.21875 0 750 15.78125 750 35.25 L 750 714.75 C 750 734.21875 734.21875 750 714.75 750 L 35.25 750 C 15.78125 750 0 734.21875 0 714.75 L 0 35.25 C 0 15.78125 15.78125 0 35.25 0 Z M 35.25 0 " clip-rule="nonzero"/></clipPath><linearGradient x1="0" gradientTransform="matrix(2.929687, 0, 0, 2.929687, 0.00000265, 0.00002)" y1="128" x2="255.999999" gradientUnits="userSpaceOnUse" y2="128" id="ffb6112053"><stop stop-opacity="1" stop-color="rgb(94.509888%, 60.389709%, 36.079407%)" offset="0"/><stop stop-opacity="1" stop-color="rgb(94.522095%, 60.488892%, 36.108398%)" offset="0.0078125"/><stop stop-opacity="1" stop-color="rgb(94.546509%, 60.687256%, 36.166382%)" offset="0.015625"/><stop stop-opacity="1" stop-color="rgb(94.570923%, 60.887146%, 36.224365%)" offset="0.0234375"/><stop stop-opacity="1" stop-color="rgb(94.595337%, 61.08551%, 36.282349%)" offset="0.03125"/><stop stop-opacity="1" stop-color="rgb(94.619751%, 61.2854%, 36.340332%)" offset="0.0390625"/><stop stop-opacity="1" stop-color="rgb(94.644165%, 61.483765%, 36.399841%)" offset="0.046875"/><stop stop-opacity="1" stop-color="rgb(94.668579%, 61.683655%, 36.457825%)" offset="0.0546875"/><stop stop-opacity="1" stop-color="rgb(94.692993%, 61.882019%, 36.515808%)" offset="0.0625"/><stop stop-opacity="1" stop-color="rgb(94.717407%, 62.081909%, 36.573792%)" offset="0.0703125"/><stop stop-opacity="1" stop-color="rgb(94.741821%, 62.280273%, 36.631775%)" offset="0.078125"/><stop stop-opacity="1" stop-color="rgb(94.766235%, 62.480164%, 36.689758%)" offset="0.0859375"/><stop stop-opacity="1" stop-color="rgb(94.790649%, 62.678528%, 36.747742%)" offset="0.09375"/><stop stop-opacity="1" stop-color="rgb(94.815063%, 62.878418%, 36.807251%)" offset="0.101562"/><stop stop-opacity="1" stop-color="rgb(94.841003%, 63.076782%, 36.865234%)" offset="0.109375"/><stop stop-opacity="1" stop-color="rgb(94.865417%, 63.276672%, 36.923218%)" offset="0.117188"/><stop stop-opacity="1" stop-color="rgb(94.889832%, 63.475037%, 36.981201%)" offset="0.125"/><stop stop-opacity="1" stop-color="rgb(94.914246%, 63.674927%, 37.039185%)" offset="0.132812"/><stop stop-opacity="1" stop-color="rgb(94.93866%, 63.873291%, 37.097168%)" offset="0.140625"/><stop stop-opacity="1" stop-color="rgb(94.963074%, 64.073181%, 37.155151%)" offset="0.148438"/><stop stop-opacity="1" stop-color="rgb(94.987488%, 64.271545%, 37.214661%)" offset="0.15625"/><stop stop-opacity="1" stop-color="rgb(95.011902%, 64.471436%, 37.272644%)" offset="0.164063"/><stop stop-opacity="1" stop-color="rgb(95.036316%, 64.6698%, 37.330627%)" offset="0.171875"/><stop stop-opacity="1" stop-color="rgb(95.06073%, 64.86969%, 37.388611%)" offset="0.179688"/><stop stop-opacity="1" stop-color="rgb(95.085144%, 65.068054%, 37.446594%)" offset="0.1875"/><stop stop-opacity="1" stop-color="rgb(95.109558%, 65.267944%, 37.504578%)" offset="0.195313"/><stop stop-opacity="1" stop-color="rgb(95.133972%, 65.466309%, 37.562561%)" offset="0.203125"/><stop stop-opacity="1" stop-color="rgb(95.159912%, 65.666199%, 37.62207%)" offset="0.210938"/><stop stop-opacity="1" stop-color="rgb(95.184326%, 65.864563%, 37.680054%)" offset="0.21875"/><stop stop-opacity="1" stop-color="rgb(95.20874%, 66.064453%, 37.738037%)" offset="0.226563"/><stop stop-opacity="1" stop-color="rgb(95.233154%, 66.262817%, 37.796021%)" offset="0.234375"/><stop stop-opacity="1" stop-color="rgb(95.257568%, 66.462708%, 37.854004%)" offset="0.242188"/><stop stop-opacity="1" stop-color="rgb(95.281982%, 66.661072%, 37.911987%)" offset="0.25"/><stop stop-opacity="1" stop-color="rgb(95.306396%, 66.860962%, 37.969971%)" offset="0.257812"/><stop stop-opacity="1" stop-color="rgb(95.330811%, 67.059326%, 38.02948%)" offset="0.265625"/><stop stop-opacity="1" stop-color="rgb(95.355225%, 67.259216%, 38.087463%)" offset="0.273438"/><stop stop-opacity="1" stop-color="rgb(95.379639%, 67.457581%, 38.145447%)" offset="0.28125"/><stop stop-opacity="1" stop-color="rgb(95.404053%, 67.657471%, 38.20343%)" offset="0.289062"/><stop stop-opacity="1" stop-color="rgb(95.428467%, 67.857361%, 38.261414%)" offset="0.296875"/><stop stop-opacity="1" stop-color="rgb(95.452881%, 68.055725%, 38.319397%)" offset="0.304688"/><stop stop-opacity="1" stop-color="rgb(95.478821%, 68.255615%, 38.378906%)" offset="0.3125"/><stop stop-opacity="1" stop-color="rgb(95.503235%, 68.453979%, 38.43689%)" offset="0.320312"/><stop stop-opacity="1" stop-color="rgb(95.527649%, 68.65387%, 38.494873%)" offset="0.328125"/><stop stop-opacity="1" stop-color="rgb(95.552063%, 68.852234%, 38.552856%)" offset="0.335938"/><stop stop-opacity="1" stop-color="rgb(95.576477%, 69.052124%, 38.61084%)" offset="0.34375"/><stop stop-opacity="1" stop-color="rgb(95.600891%, 69.250488%, 38.668823%)" offset="0.351562"/><stop stop-opacity="1" stop-color="rgb(95.625305%, 69.450378%, 38.726807%)" offset="0.359375"/><stop stop-opacity="1" stop-color="rgb(95.649719%, 69.648743%, 38.786316%)" offset="0.367188"/><stop stop-opacity="1" stop-color="rgb(95.674133%, 69.848633%, 38.844299%)" offset="0.375"/><stop stop-opacity="1" stop-color="rgb(95.698547%, 70.046997%, 38.902283%)" offset="0.382812"/><stop stop-opacity="1" stop-color="rgb(95.722961%, 70.246887%, 38.960266%)" offset="0.390625"/><stop stop-opacity="1" stop-color="rgb(95.747375%, 70.445251%, 39.01825%)" offset="0.398438"/><stop stop-opacity="1" stop-color="rgb(95.77179%, 70.645142%, 39.076233%)" offset="0.40625"/><stop stop-opacity="1" stop-color="rgb(95.797729%, 70.843506%, 39.134216%)" offset="0.414062"/><stop stop-opacity="1" stop-color="rgb(95.822144%, 71.043396%, 39.193726%)" offset="0.421875"/><stop stop-opacity="1" stop-color="rgb(95.846558%, 71.24176%, 39.251709%)" offset="0.429688"/><stop stop-opacity="1" stop-color="rgb(95.870972%, 71.44165%, 39.309692%)" offset="0.4375"/><stop stop-opacity="1" stop-color="rgb(95.895386%, 71.640015%, 39.367676%)" offset="0.445312"/><stop stop-opacity="1" stop-color="rgb(95.9198%, 71.839905%, 39.425659%)" offset="0.453125"/><stop stop-opacity="1" stop-color="rgb(95.944214%, 72.038269%, 39.483643%)" offset="0.460938"/><stop stop-opacity="1" stop-color="rgb(95.968628%, 72.238159%, 39.541626%)" offset="0.46875"/><stop stop-opacity="1" stop-color="rgb(95.993042%, 72.436523%, 39.601135%)" offset="0.476562"/><stop stop-opacity="1" stop-color="rgb(96.017456%, 72.636414%, 39.659119%)" offset="0.484375"/><stop stop-opacity="1" stop-color="rgb(96.04187%, 72.834778%, 39.717102%)" offset="0.492188"/><stop stop-opacity="1" stop-color="rgb(96.066284%, 73.034668%, 39.775085%)" offset="0.5"/><stop stop-opacity="1" stop-color="rgb(96.090698%, 73.233032%, 39.833069%)" offset="0.507812"/><stop stop-opacity="1" stop-color="rgb(96.116638%, 73.432922%, 39.891052%)" offset="0.515625"/><stop stop-opacity="1" stop-color="rgb(96.141052%, 73.631287%, 39.949036%)" offset="0.523438"/><stop stop-opacity="1" stop-color="rgb(96.165466%, 73.831177%, 40.008545%)" offset="0.53125"/><stop stop-opacity="1" stop-color="rgb(96.18988%, 74.029541%, 40.066528%)" offset="0.539062"/><stop stop-opacity="1" stop-color="rgb(96.214294%, 74.229431%, 40.124512%)" offset="0.546875"/><stop stop-opacity="1" stop-color="rgb(96.238708%, 74.427795%, 40.182495%)" offset="0.554688"/><stop stop-opacity="1" stop-color="rgb(96.263123%, 74.627686%, 40.240479%)" offset="0.5625"/><stop stop-opacity="1" stop-color="rgb(96.287537%, 74.82605%, 40.298462%)" offset="0.570313"/><stop stop-opacity="1" stop-color="rgb(96.311951%, 75.02594%, 40.356445%)" offset="0.578125"/><stop stop-opacity="1" stop-color="rgb(96.336365%, 75.224304%, 40.415955%)" offset="0.585938"/><stop stop-opacity="1" stop-color="rgb(96.360779%, 75.424194%, 40.473938%)" offset="0.59375"/><stop stop-opacity="1" stop-color="rgb(96.385193%, 75.622559%, 40.531921%)" offset="0.601562"/><stop stop-opacity="1" stop-color="rgb(96.409607%, 75.822449%, 40.589905%)" offset="0.609375"/><stop stop-opacity="1" stop-color="rgb(96.435547%, 76.020813%, 40.647888%)" offset="0.617188"/><stop stop-opacity="1" stop-color="rgb(96.459961%, 76.220703%, 40.705872%)" offset="0.625"/><stop stop-opacity="1" stop-color="rgb(96.484375%, 76.419067%, 40.763855%)" offset="0.632812"/><stop stop-opacity="1" stop-color="rgb(96.508789%, 76.618958%, 40.823364%)" offset="0.640625"/><stop stop-opacity="1" stop-color="rgb(96.533203%, 76.817322%, 40.881348%)" offset="0.648438"/><stop stop-opacity="1" stop-color="rgb(96.557617%, 77.017212%, 40.939331%)" offset="0.65625"/><stop stop-opacity="1" stop-color="rgb(96.582031%, 77.215576%, 40.997314%)" offset="0.664063"/><stop stop-opacity="1" stop-color="rgb(96.606445%, 77.415466%, 41.055298%)" offset="0.671875"/><stop stop-opacity="1" stop-color="rgb(96.630859%, 77.613831%, 41.113281%)" offset="0.679688"/><stop stop-opacity="1" stop-color="rgb(96.655273%, 77.813721%, 41.171265%)" offset="0.6875"/><stop stop-opacity="1" stop-color="rgb(96.679688%, 78.012085%, 41.230774%)" offset="0.695313"/><stop stop-opacity="1" stop-color="rgb(96.704102%, 78.211975%, 41.288757%)" offset="0.703125"/><stop stop-opacity="1" stop-color="rgb(96.728516%, 78.410339%, 41.346741%)" offset="0.710937"/><stop stop-opacity="1" stop-color="rgb(96.754456%, 78.610229%, 41.404724%)" offset="0.71875"/><stop stop-opacity="1" stop-color="rgb(96.77887%, 78.808594%, 41.462708%)" offset="0.726562"/><stop stop-opacity="1" stop-color="rgb(96.803284%, 79.008484%, 41.520691%)" offset="0.734375"/><stop stop-opacity="1" stop-color="rgb(96.827698%, 79.208374%, 41.578674%)" offset="0.742188"/><stop stop-opacity="1" stop-color="rgb(96.852112%, 79.406738%, 41.638184%)" offset="0.75"/><stop stop-opacity="1" stop-color="rgb(96.876526%, 79.606628%, 41.696167%)" offset="0.757812"/><stop stop-opacity="1" stop-color="rgb(96.90094%, 79.804993%, 41.75415%)" offset="0.765625"/><stop stop-opacity="1" stop-color="rgb(96.925354%, 80.004883%, 41.812134%)" offset="0.773438"/><stop stop-opacity="1" stop-color="rgb(96.949768%, 80.203247%, 41.870117%)" offset="0.78125"/><stop stop-opacity="1" stop-color="rgb(96.974182%, 80.403137%, 41.928101%)" offset="0.789063"/><stop stop-opacity="1" stop-color="rgb(96.998596%, 80.601501%, 41.986084%)" offset="0.796875"/><stop stop-opacity="1" stop-color="rgb(97.02301%, 80.801392%, 42.045593%)" offset="0.804688"/><stop stop-opacity="1" stop-color="rgb(97.047424%, 80.999756%, 42.103577%)" offset="0.8125"/><stop stop-opacity="1" stop-color="rgb(97.073364%, 81.199646%, 42.16156%)" offset="0.820313"/><stop stop-opacity="1" stop-color="rgb(97.097778%, 81.39801%, 42.219543%)" offset="0.828125"/><stop stop-opacity="1" stop-color="rgb(97.122192%, 81.5979%, 42.277527%)" offset="0.835937"/><stop stop-opacity="1" stop-color="rgb(97.146606%, 81.796265%, 42.33551%)" offset="0.84375"/><stop stop-opacity="1" stop-color="rgb(97.171021%, 81.996155%, 42.393494%)" offset="0.851562"/><stop stop-opacity="1" stop-color="rgb(97.195435%, 82.194519%, 42.453003%)" offset="0.859375"/><stop stop-opacity="1" stop-color="rgb(97.219849%, 82.394409%, 42.510986%)" offset="0.867188"/><stop stop-opacity="1" stop-color="rgb(97.244263%, 82.592773%, 42.56897%)" offset="0.875"/><stop stop-opacity="1" stop-color="rgb(97.268677%, 82.792664%, 42.626953%)" offset="0.882812"/><stop stop-opacity="1" stop-color="rgb(97.293091%, 82.991028%, 42.684937%)" offset="0.890625"/><stop stop-opacity="1" stop-color="rgb(97.317505%, 83.190918%, 42.74292%)" offset="0.898438"/><stop stop-opacity="1" stop-color="rgb(97.341919%, 83.389282%, 42.800903%)" offset="0.90625"/><stop stop-opacity="1" stop-color="rgb(97.366333%, 83.589172%, 42.860413%)" offset="0.914063"/><stop stop-opacity="1" stop-color="rgb(97.392273%, 83.787537%, 42.918396%)" offset="0.921875"/><stop stop-opacity="1" stop-color="rgb(97.416687%, 83.987427%, 42.976379%)" offset="0.929688"/><stop stop-opacity="1" stop-color="rgb(97.441101%, 84.185791%, 43.034363%)" offset="0.9375"/><stop stop-opacity="1" stop-color="rgb(97.465515%, 84.385681%, 43.092346%)" offset="0.945312"/><stop stop-opacity="1" stop-color="rgb(97.489929%, 84.584045%, 43.15033%)" offset="0.953125"/><stop stop-opacity="1" stop-color="rgb(97.514343%, 84.783936%, 43.208313%)" offset="0.960937"/><stop stop-opacity="1" stop-color="rgb(97.538757%, 84.9823%, 43.267822%)" offset="0.96875"/><stop stop-opacity="1" stop-color="rgb(97.563171%, 85.18219%, 43.325806%)" offset="0.976562"/><stop stop-opacity="1" stop-color="rgb(97.587585%, 85.380554%, 43.383789%)" offset="0.984375"/><stop stop-opacity="1" stop-color="rgb(97.612%, 85.580444%, 43.441772%)" offset="0.992188"/><stop stop-opacity="1" stop-color="rgb(97.636414%, 85.778809%, 43.499756%)" offset="1"/></linearGradient><clipPath id="02e23094ee"><rect x="0" width="750" y="0" height="750"/></clipPath><clipPath id="36ebb8a2d4"><path d="M 254.839844 172.027344 L 494.839844 172.027344 L 494.839844 412.027344 L 254.839844 412.027344 Z M 254.839844 172.027344 " clip-rule="nonzero"/></clipPath></defs><g clip-path="url(#c07938a6c0)"><g transform="matrix(1, 0, 0, 1, 0, -0.000000000000042435)"><g clip-path="url(#02e23094ee)"><g clip-path="url(#2f143bf9c5)"><g clip-path="url(#dfdb14209c)"><rect x="-165" fill="url(#ffb6112053)" width="1080" height="1079.999992" y="-164.999999"/></g></g></g></g></g><g fill="#000000" fill-opacity="1"><g transform="translate(27.002931, 634.847341)"><g><path d="M 37.015625 -64.53125 C 41.160156 -64.53125 44.894531 -64.082031 48.21875 -63.1875 C 51.550781 -62.300781 54.191406 -61.085938 56.140625 -59.546875 C 58.085938 -58.003906 59.0625 -56.257812 59.0625 -54.3125 C 59.0625 -53.25 58.691406 -52.226562 57.953125 -51.25 C 57.222656 -50.28125 56.25 -49.796875 55.03125 -49.796875 C 53.894531 -49.796875 52.984375 -50 52.296875 -50.40625 C 51.609375 -50.8125 50.957031 -51.335938 50.34375 -51.984375 C 49.738281 -52.640625 48.910156 -53.210938 47.859375 -53.703125 C 46.878906 -54.265625 45.457031 -54.707031 43.59375 -55.03125 C 41.726562 -55.363281 39.859375 -55.53125 37.984375 -55.53125 C 33.523438 -55.53125 29.609375 -54.472656 26.234375 -52.359375 C 22.867188 -50.242188 20.210938 -47.398438 18.265625 -43.828125 C 16.316406 -40.265625 15.34375 -36.207031 15.34375 -31.65625 C 15.34375 -27.113281 16.273438 -23.054688 18.140625 -19.484375 C 20.003906 -15.910156 22.597656 -13.066406 25.921875 -10.953125 C 29.253906 -8.847656 33.113281 -7.796875 37.5 -7.796875 C 40.34375 -7.796875 42.613281 -8.035156 44.3125 -8.515625 C 46.019531 -9.003906 47.441406 -9.578125 48.578125 -10.234375 C 50.046875 -11.046875 51.164062 -11.851562 51.9375 -12.65625 C 52.707031 -13.46875 53.738281 -13.875 55.03125 -13.875 C 56.414062 -13.875 57.492188 -13.425781 58.265625 -12.53125 C 59.035156 -11.644531 59.421875 -10.550781 59.421875 -9.25 C 59.421875 -7.789062 58.40625 -6.25 56.375 -4.625 C 54.34375 -3 51.601562 -1.617188 48.15625 -0.484375 C 44.707031 0.648438 40.789062 1.21875 36.40625 1.21875 C 30.238281 1.21875 24.835938 -0.21875 20.203125 -3.09375 C 15.578125 -5.976562 11.984375 -9.914062 9.421875 -14.90625 C 6.867188 -19.90625 5.59375 -25.488281 5.59375 -31.65625 C 5.59375 -37.820312 6.910156 -43.378906 9.546875 -48.328125 C 12.191406 -53.285156 15.867188 -57.222656 20.578125 -60.140625 C 25.285156 -63.066406 30.765625 -64.53125 37.015625 -64.53125 Z M 37.015625 -64.53125 "/></g></g></g><g fill="#000000" fill-opacity="1"><g transform="translate(90.195235, 634.847341)"><g><path d="M 68.796875 -31.65625 C 68.796875 -25.320312 67.394531 -19.679688 64.59375 -14.734375 C 61.789062 -9.785156 58.015625 -5.890625 53.265625 -3.046875 C 48.523438 -0.203125 43.191406 1.21875 37.265625 1.21875 C 31.335938 1.21875 25.976562 -0.203125 21.1875 -3.046875 C 16.394531 -5.890625 12.597656 -9.785156 9.796875 -14.734375 C 6.992188 -19.679688 5.59375 -25.320312 5.59375 -31.65625 C 5.59375 -37.988281 6.992188 -43.628906 9.796875 -48.578125 C 12.597656 -53.535156 16.394531 -57.429688 21.1875 -60.265625 C 25.976562 -63.109375 31.335938 -64.53125 37.265625 -64.53125 C 43.191406 -64.53125 48.523438 -63.109375 53.265625 -60.265625 C 58.015625 -57.429688 61.789062 -53.535156 64.59375 -48.578125 C 67.394531 -43.628906 68.796875 -37.988281 68.796875 -31.65625 Z M 59.0625 -31.65625 C 59.0625 -36.363281 58.101562 -40.503906 56.1875 -44.078125 C 54.28125 -47.648438 51.679688 -50.453125 48.390625 -52.484375 C 45.109375 -54.515625 41.398438 -55.53125 37.265625 -55.53125 C 33.117188 -55.53125 29.398438 -54.515625 26.109375 -52.484375 C 22.828125 -50.453125 20.210938 -47.648438 18.265625 -44.078125 C 16.316406 -40.503906 15.34375 -36.363281 15.34375 -31.65625 C 15.34375 -27.03125 16.316406 -22.929688 18.265625 -19.359375 C 20.210938 -15.785156 22.828125 -12.960938 26.109375 -10.890625 C 29.398438 -8.828125 33.117188 -7.796875 37.265625 -7.796875 C 41.398438 -7.796875 45.109375 -8.828125 48.390625 -10.890625 C 51.679688 -12.960938 54.28125 -15.785156 56.1875 -19.359375 C 58.101562 -22.929688 59.0625 -27.03125 59.0625 -31.65625 Z M 59.0625 -31.65625 "/></g></g></g><g fill="#000000" fill-opacity="1"><g transform="translate(164.589255, 634.847341)"><g><path d="M 40.296875 -64.53125 C 45.816406 -64.53125 50.160156 -63.394531 53.328125 -61.125 C 56.492188 -58.851562 58.742188 -55.804688 60.078125 -51.984375 C 61.421875 -48.171875 62.09375 -43.910156 62.09375 -39.203125 L 62.09375 -5 C 62.09375 -3.613281 61.625 -2.429688 60.6875 -1.453125 C 59.757812 -0.484375 58.609375 0 57.234375 0 C 55.847656 0 54.6875 -0.484375 53.75 -1.453125 C 52.820312 -2.429688 52.359375 -3.613281 52.359375 -5 L 52.359375 -38.96875 C 52.359375 -42.050781 51.890625 -44.828125 50.953125 -47.296875 C 50.023438 -49.773438 48.484375 -51.765625 46.328125 -53.265625 C 44.179688 -54.773438 41.238281 -55.53125 37.5 -55.53125 C 34.09375 -55.53125 30.96875 -54.773438 28.125 -53.265625 C 25.28125 -51.765625 23.003906 -49.773438 21.296875 -47.296875 C 19.597656 -44.828125 18.75 -42.050781 18.75 -38.96875 L 18.75 -5 C 18.75 -3.613281 18.28125 -2.429688 17.34375 -1.453125 C 16.414062 -0.484375 15.257812 0 13.875 0 C 12.5 0 11.34375 -0.484375 10.40625 -1.453125 C 9.476562 -2.429688 9.015625 -3.613281 9.015625 -5 L 9.015625 -58.078125 C 9.015625 -59.460938 9.476562 -60.617188 10.40625 -61.546875 C 11.34375 -62.484375 12.5 -62.953125 13.875 -62.953125 C 15.34375 -62.953125 16.519531 -62.484375 17.40625 -61.546875 C 18.300781 -60.617188 18.75 -59.460938 18.75 -58.078125 L 18.75 -49.4375 L 16.3125 -46.765625 C 16.71875 -48.867188 17.648438 -50.992188 19.109375 -53.140625 C 20.578125 -55.296875 22.40625 -57.222656 24.59375 -58.921875 C 26.789062 -60.628906 29.226562 -61.988281 31.90625 -63 C 34.582031 -64.019531 37.378906 -64.53125 40.296875 -64.53125 Z M 40.296875 -64.53125 "/></g></g></g><g fill="#000000" fill-opacity="1"><g transform="translate(235.695823, 634.847341)"><g><path d="M 6.578125 -62.59375 L 35.1875 -62.59375 C 36.488281 -62.59375 37.566406 -62.144531 38.421875 -61.25 C 39.273438 -60.351562 39.703125 -59.296875 39.703125 -58.078125 C 39.703125 -56.785156 39.273438 -55.710938 38.421875 -54.859375 C 37.566406 -54.003906 36.488281 -53.578125 35.1875 -53.578125 L 6.578125 -53.578125 C 5.359375 -53.578125 4.300781 -54.019531 3.40625 -54.90625 C 2.507812 -55.800781 2.0625 -56.898438 2.0625 -58.203125 C 2.0625 -59.421875 2.507812 -60.457031 3.40625 -61.3125 C 4.300781 -62.164062 5.359375 -62.59375 6.578125 -62.59375 Z M 19.359375 -79.140625 C 20.742188 -79.140625 21.878906 -78.671875 22.765625 -77.734375 C 23.660156 -76.804688 24.109375 -75.65625 24.109375 -74.28125 L 24.109375 -15.46875 C 24.109375 -13.519531 24.390625 -12.054688 24.953125 -11.078125 C 25.523438 -10.109375 26.273438 -9.441406 27.203125 -9.078125 C 28.140625 -8.710938 29.054688 -8.53125 29.953125 -8.53125 C 30.765625 -8.53125 31.472656 -8.671875 32.078125 -8.953125 C 32.691406 -9.234375 33.40625 -9.375 34.21875 -9.375 C 35.03125 -9.375 35.78125 -8.988281 36.46875 -8.21875 C 37.15625 -7.445312 37.5 -6.453125 37.5 -5.234375 C 37.5 -3.773438 36.644531 -2.535156 34.9375 -1.515625 C 33.238281 -0.503906 31.332031 0 29.21875 0 C 28.082031 0 26.679688 -0.078125 25.015625 -0.234375 C 23.359375 -0.398438 21.71875 -0.929688 20.09375 -1.828125 C 18.46875 -2.722656 17.109375 -4.203125 16.015625 -6.265625 C 14.921875 -8.335938 14.375 -11.242188 14.375 -14.984375 L 14.375 -74.28125 C 14.375 -75.65625 14.859375 -76.804688 15.828125 -77.734375 C 16.804688 -78.671875 17.984375 -79.140625 19.359375 -79.140625 Z M 19.359375 -79.140625 "/></g></g></g><g fill="#000000" fill-opacity="1"><g transform="translate(279.285085, 634.847341)"><g><path d="M 38.109375 1.21875 C 31.617188 1.21875 25.9375 -0.160156 21.0625 -2.921875 C 16.195312 -5.679688 12.398438 -9.472656 9.671875 -14.296875 C 6.953125 -19.128906 5.59375 -24.710938 5.59375 -31.046875 C 5.59375 -38.109375 6.992188 -44.132812 9.796875 -49.125 C 12.597656 -54.125 16.25 -57.941406 20.75 -60.578125 C 25.257812 -63.210938 30.03125 -64.53125 35.0625 -64.53125 C 38.800781 -64.53125 42.414062 -63.835938 45.90625 -62.453125 C 49.394531 -61.078125 52.476562 -59.070312 55.15625 -56.4375 C 57.832031 -53.800781 59.984375 -50.632812 61.609375 -46.9375 C 63.234375 -43.25 64.085938 -39.128906 64.171875 -34.578125 C 64.171875 -33.285156 63.679688 -32.191406 62.703125 -31.296875 C 61.734375 -30.398438 60.597656 -29.953125 59.296875 -29.953125 L 11.203125 -29.953125 L 9.015625 -38.359375 L 55.890625 -38.359375 L 53.9375 -36.65625 L 53.9375 -39.328125 C 53.613281 -42.660156 52.5 -45.519531 50.59375 -47.90625 C 48.6875 -50.300781 46.375 -52.148438 43.65625 -53.453125 C 40.9375 -54.753906 38.070312 -55.40625 35.0625 -55.40625 C 32.632812 -55.40625 30.222656 -54.976562 27.828125 -54.125 C 25.429688 -53.269531 23.28125 -51.890625 21.375 -49.984375 C 19.46875 -48.078125 17.925781 -45.617188 16.75 -42.609375 C 15.570312 -39.609375 14.984375 -36 14.984375 -31.78125 C 14.984375 -27.070312 15.9375 -22.929688 17.84375 -19.359375 C 19.75 -15.785156 22.40625 -12.960938 25.8125 -10.890625 C 29.21875 -8.828125 33.195312 -7.796875 37.75 -7.796875 C 40.59375 -7.796875 43.066406 -8.160156 45.171875 -8.890625 C 47.285156 -9.617188 49.113281 -10.53125 50.65625 -11.625 C 52.195312 -12.71875 53.492188 -13.835938 54.546875 -14.984375 C 55.609375 -15.710938 56.625 -16.078125 57.59375 -16.078125 C 58.8125 -16.078125 59.804688 -15.671875 60.578125 -14.859375 C 61.347656 -14.046875 61.734375 -13.070312 61.734375 -11.9375 C 61.734375 -10.550781 61.082031 -9.332031 59.78125 -8.28125 C 57.507812 -5.757812 54.425781 -3.546875 50.53125 -1.640625 C 46.632812 0.265625 42.492188 1.21875 38.109375 1.21875 Z M 38.109375 1.21875 "/></g></g></g><g fill="#000000" fill-opacity="1"><g transform="translate(348.443468, 634.847341)"><g><path d="M 8.40625 -63.6875 C 9.945312 -63.6875 11.242188 -62.992188 12.296875 -61.609375 L 54.671875 -7.546875 C 55.316406 -6.648438 55.640625 -5.675781 55.640625 -4.625 C 55.640625 -3.25 55.148438 -2.070312 54.171875 -1.09375 C 53.203125 -0.125 52.070312 0.359375 50.78125 0.359375 C 49.238281 0.359375 47.898438 -0.367188 46.765625 -1.828125 L 4.390625 -55.765625 C 3.734375 -56.660156 3.40625 -57.632812 3.40625 -58.6875 C 3.40625 -60.144531 3.910156 -61.34375 4.921875 -62.28125 C 5.941406 -63.21875 7.101562 -63.6875 8.40625 -63.6875 Z M 8.40625 0.25 C 7.34375 0.25 6.285156 -0.15625 5.234375 -0.96875 C 4.179688 -1.78125 3.65625 -2.835938 3.65625 -4.140625 C 3.65625 -5.191406 4.0625 -6.207031 4.875 -7.1875 L 24.84375 -32.390625 L 29.953125 -24.359375 L 12.296875 -1.703125 C 11.328125 -0.398438 10.03125 0.25 8.40625 0.25 Z M 50.78125 -63.6875 C 52.15625 -63.6875 53.269531 -63.238281 54.125 -62.34375 C 54.976562 -61.445312 55.40625 -60.429688 55.40625 -59.296875 C 55.40625 -58.804688 55.300781 -58.273438 55.09375 -57.703125 C 54.894531 -57.140625 54.59375 -56.617188 54.1875 -56.140625 L 34.34375 -30.6875 L 29.21875 -38.109375 L 46.765625 -61.484375 C 47.898438 -62.953125 49.238281 -63.6875 50.78125 -63.6875 Z M 50.78125 -63.6875 "/></g></g></g><g fill="#000000" fill-opacity="1"><g transform="translate(413.584151, 634.847341)"><g><path d="M 6.578125 -62.59375 L 35.1875 -62.59375 C 36.488281 -62.59375 37.566406 -62.144531 38.421875 -61.25 C 39.273438 -60.351562 39.703125 -59.296875 39.703125 -58.078125 C 39.703125 -56.785156 39.273438 -55.710938 38.421875 -54.859375 C 37.566406 -54.003906 36.488281 -53.578125 35.1875 -53.578125 L 6.578125 -53.578125 C 5.359375 -53.578125 4.300781 -54.019531 3.40625 -54.90625 C 2.507812 -55.800781 2.0625 -56.898438 2.0625 -58.203125 C 2.0625 -59.421875 2.507812 -60.457031 3.40625 -61.3125 C 4.300781 -62.164062 5.359375 -62.59375 6.578125 -62.59375 Z M 19.359375 -79.140625 C 20.742188 -79.140625 21.878906 -78.671875 22.765625 -77.734375 C 23.660156 -76.804688 24.109375 -75.65625 24.109375 -74.28125 L 24.109375 -15.46875 C 24.109375 -13.519531 24.390625 -12.054688 24.953125 -11.078125 C 25.523438 -10.109375 26.273438 -9.441406 27.203125 -9.078125 C 28.140625 -8.710938 29.054688 -8.53125 29.953125 -8.53125 C 30.765625 -8.53125 31.472656 -8.671875 32.078125 -8.953125 C 32.691406 -9.234375 33.40625 -9.375 34.21875 -9.375 C 35.03125 -9.375 35.78125 -8.988281 36.46875 -8.21875 C 37.15625 -7.445312 37.5 -6.453125 37.5 -5.234375 C 37.5 -3.773438 36.644531 -2.535156 34.9375 -1.515625 C 33.238281 -0.503906 31.332031 0 29.21875 0 C 28.082031 0 26.679688 -0.078125 25.015625 -0.234375 C 23.359375 -0.398438 21.71875 -0.929688 20.09375 -1.828125 C 18.46875 -2.722656 17.109375 -4.203125 16.015625 -6.265625 C 14.921875 -8.335938 14.375 -11.242188 14.375 -14.984375 L 14.375 -74.28125 C 14.375 -75.65625 14.859375 -76.804688 15.828125 -77.734375 C 16.804688 -78.671875 17.984375 -79.140625 19.359375 -79.140625 Z M 19.359375 -79.140625 "/></g></g></g><g fill="#000000" fill-opacity="1"><g transform="translate(457.784164, 634.847341)"><g><path d="M 60.390625 -90.109375 C 61.117188 -90.109375 61.707031 -89.863281 62.15625 -89.375 C 62.601562 -88.882812 62.828125 -88.316406 62.828125 -87.671875 L 62.828125 -2.4375 C 62.828125 -1.789062 62.582031 -1.222656 62.09375 -0.734375 C 61.613281 -0.242188 61.046875 0 60.390625 0 C 59.660156 0 59.070312 -0.242188 58.625 -0.734375 C 58.175781 -1.222656 57.953125 -1.789062 57.953125 -2.4375 L 57.953125 -19.71875 L 59.90625 -22.40625 C 59.90625 -19.644531 59.273438 -16.863281 58.015625 -14.0625 C 56.765625 -11.257812 54.976562 -8.703125 52.65625 -6.390625 C 50.34375 -4.078125 47.644531 -2.226562 44.5625 -0.84375 C 41.476562 0.53125 38.148438 1.21875 34.578125 1.21875 C 29.222656 1.21875 24.414062 -0.179688 20.15625 -2.984375 C 15.894531 -5.785156 12.523438 -9.597656 10.046875 -14.421875 C 7.566406 -19.253906 6.328125 -24.71875 6.328125 -30.8125 C 6.328125 -36.894531 7.566406 -42.347656 10.046875 -47.171875 C 12.523438 -52.003906 15.894531 -55.800781 20.15625 -58.5625 C 24.414062 -61.320312 29.222656 -62.703125 34.578125 -62.703125 C 37.910156 -62.703125 41.097656 -62.070312 44.140625 -60.8125 C 47.179688 -59.5625 49.878906 -57.796875 52.234375 -55.515625 C 54.585938 -53.242188 56.453125 -50.585938 57.828125 -47.546875 C 59.210938 -44.503906 59.90625 -41.195312 59.90625 -37.625 L 57.953125 -40.671875 L 57.953125 -87.671875 C 57.953125 -88.316406 58.175781 -88.882812 58.625 -89.375 C 59.070312 -89.863281 59.660156 -90.109375 60.390625 -90.109375 Z M 34.828125 -3.40625 C 39.453125 -3.40625 43.53125 -4.582031 47.0625 -6.9375 C 50.59375 -9.289062 53.375 -12.535156 55.40625 -16.671875 C 57.4375 -20.816406 58.453125 -25.53125 58.453125 -30.8125 C 58.453125 -36.082031 57.4375 -40.765625 55.40625 -44.859375 C 53.375 -48.960938 50.570312 -52.191406 47 -54.546875 C 43.425781 -56.898438 39.367188 -58.078125 34.828125 -58.078125 C 30.359375 -58.078125 26.335938 -56.898438 22.765625 -54.546875 C 19.191406 -52.191406 16.367188 -48.960938 14.296875 -44.859375 C 12.234375 -40.765625 11.203125 -36.082031 11.203125 -30.8125 C 11.203125 -25.613281 12.234375 -20.941406 14.296875 -16.796875 C 16.367188 -12.660156 19.191406 -9.394531 22.765625 -7 C 26.335938 -4.601562 30.359375 -3.40625 34.828125 -3.40625 Z M 34.828125 -3.40625 "/></g></g></g><g fill="#000000" fill-opacity="1"><g transform="translate(530.717082, 634.847341)"><g><path d="M 66.359375 -30.6875 C 66.359375 -24.675781 65.054688 -19.253906 62.453125 -14.421875 C 59.859375 -9.597656 56.304688 -5.785156 51.796875 -2.984375 C 47.296875 -0.179688 42.164062 1.21875 36.40625 1.21875 C 30.726562 1.21875 25.613281 -0.179688 21.0625 -2.984375 C 16.519531 -5.785156 12.925781 -9.597656 10.28125 -14.421875 C 7.644531 -19.253906 6.328125 -24.675781 6.328125 -30.6875 C 6.328125 -36.769531 7.644531 -42.226562 10.28125 -47.0625 C 12.925781 -51.894531 16.519531 -55.707031 21.0625 -58.5 C 25.613281 -61.300781 30.726562 -62.703125 36.40625 -62.703125 C 42.164062 -62.703125 47.296875 -61.300781 51.796875 -58.5 C 56.304688 -55.707031 59.859375 -51.894531 62.453125 -47.0625 C 65.054688 -42.226562 66.359375 -36.769531 66.359375 -30.6875 Z M 61.484375 -30.6875 C 61.484375 -35.957031 60.40625 -40.640625 58.25 -44.734375 C 56.101562 -48.835938 53.144531 -52.085938 49.375 -54.484375 C 45.601562 -56.878906 41.28125 -58.078125 36.40625 -58.078125 C 31.613281 -58.078125 27.3125 -56.878906 23.5 -54.484375 C 19.6875 -52.085938 16.679688 -48.835938 14.484375 -44.734375 C 12.296875 -40.640625 11.203125 -35.957031 11.203125 -30.6875 C 11.203125 -25.488281 12.296875 -20.835938 14.484375 -16.734375 C 16.679688 -12.640625 19.6875 -9.394531 23.5 -7 C 27.3125 -4.601562 31.613281 -3.40625 36.40625 -3.40625 C 41.28125 -3.40625 45.601562 -4.601562 49.375 -7 C 53.144531 -9.394531 56.101562 -12.640625 58.25 -16.734375 C 60.40625 -20.835938 61.484375 -25.488281 61.484375 -30.6875 Z M 61.484375 -30.6875 "/></g></g></g><g fill="#000000" fill-opacity="1"><g transform="translate(603.406494, 634.847341)"><g><path d="M 37.015625 -62.703125 C 40.671875 -62.703125 44.097656 -62.296875 47.296875 -61.484375 C 50.503906 -60.679688 53.101562 -59.609375 55.09375 -58.265625 C 57.082031 -56.921875 58.078125 -55.519531 58.078125 -54.0625 C 58.078125 -53.5 57.851562 -52.953125 57.40625 -52.421875 C 56.96875 -51.890625 56.421875 -51.625 55.765625 -51.625 C 54.867188 -51.625 54.15625 -51.867188 53.625 -52.359375 C 53.101562 -52.847656 52.554688 -53.4375 51.984375 -54.125 C 51.421875 -54.8125 50.53125 -55.441406 49.3125 -56.015625 C 48.175781 -56.578125 46.570312 -57.0625 44.5 -57.46875 C 42.4375 -57.875 39.898438 -58.078125 36.890625 -58.078125 C 32.179688 -58.078125 27.878906 -56.859375 23.984375 -54.421875 C 20.085938 -51.992188 16.984375 -48.726562 14.671875 -44.625 C 12.359375 -40.53125 11.203125 -35.925781 11.203125 -30.8125 C 11.203125 -25.613281 12.273438 -20.941406 14.421875 -16.796875 C 16.578125 -12.660156 19.582031 -9.394531 23.4375 -7 C 27.289062 -4.601562 31.773438 -3.40625 36.890625 -3.40625 C 40.546875 -3.40625 43.328125 -3.75 45.234375 -4.4375 C 47.140625 -5.132812 48.785156 -5.890625 50.171875 -6.703125 C 51.867188 -7.671875 53.039062 -8.601562 53.6875 -9.5 C 54.34375 -10.394531 55.117188 -10.84375 56.015625 -10.84375 C 56.660156 -10.84375 57.164062 -10.640625 57.53125 -10.234375 C 57.894531 -9.828125 58.078125 -9.296875 58.078125 -8.640625 C 58.078125 -7.671875 57.179688 -6.394531 55.390625 -4.8125 C 53.609375 -3.226562 51.113281 -1.828125 47.90625 -0.609375 C 44.707031 0.609375 40.914062 1.21875 36.53125 1.21875 C 30.601562 1.21875 25.363281 -0.179688 20.8125 -2.984375 C 16.269531 -5.785156 12.71875 -9.597656 10.15625 -14.421875 C 7.601562 -19.253906 6.328125 -24.71875 6.328125 -30.8125 C 6.328125 -36.488281 7.601562 -41.742188 10.15625 -46.578125 C 12.71875 -51.410156 16.289062 -55.304688 20.875 -58.265625 C 25.46875 -61.222656 30.847656 -62.703125 37.015625 -62.703125 Z M 37.015625 -62.703125 "/></g></g></g><g fill="#000000" fill-opacity="1"><g transform="translate(666.35529, 634.847341)"><g><path d="M 6.703125 -9.734375 C 6.128906 -10.710938 5.863281 -11.503906 5.90625 -12.109375 C 5.945312 -12.722656 6.25 -13.234375 6.8125 -13.640625 C 7.21875 -14.046875 7.765625 -14.226562 8.453125 -14.1875 C 9.148438 -14.144531 9.742188 -13.835938 10.234375 -13.265625 C 12.335938 -10.265625 15.03125 -7.832031 18.3125 -5.96875 C 21.601562 -4.101562 25.484375 -3.171875 29.953125 -3.171875 C 32.628906 -3.171875 35.207031 -3.613281 37.6875 -4.5 C 40.164062 -5.394531 42.195312 -6.734375 43.78125 -8.515625 C 45.363281 -10.304688 46.15625 -12.5 46.15625 -15.09375 C 46.15625 -17.851562 45.378906 -20.066406 43.828125 -21.734375 C 42.285156 -23.398438 40.296875 -24.71875 37.859375 -25.6875 C 35.429688 -26.664062 32.878906 -27.476562 30.203125 -28.125 C 27.359375 -28.851562 24.65625 -29.6875 22.09375 -30.625 C 19.539062 -31.5625 17.289062 -32.738281 15.34375 -34.15625 C 13.394531 -35.570312 11.851562 -37.253906 10.71875 -39.203125 C 9.582031 -41.148438 9.015625 -43.46875 9.015625 -46.15625 C 9.015625 -49.3125 9.863281 -52.148438 11.5625 -54.671875 C 13.269531 -57.191406 15.664062 -59.160156 18.75 -60.578125 C 21.832031 -61.992188 25.40625 -62.703125 29.46875 -62.703125 C 31.414062 -62.703125 33.484375 -62.457031 35.671875 -61.96875 C 37.867188 -61.488281 40.0625 -60.660156 42.25 -59.484375 C 44.445312 -58.304688 46.476562 -56.660156 48.34375 -54.546875 C 48.988281 -54.066406 49.289062 -53.476562 49.25 -52.78125 C 49.207031 -52.09375 48.90625 -51.460938 48.34375 -50.890625 C 47.851562 -50.566406 47.320312 -50.40625 46.75 -50.40625 C 46.1875 -50.40625 45.703125 -50.648438 45.296875 -51.140625 C 43.179688 -53.492188 40.722656 -55.238281 37.921875 -56.375 C 35.128906 -57.507812 32.148438 -58.078125 28.984375 -58.078125 C 26.304688 -58.078125 23.804688 -57.628906 21.484375 -56.734375 C 19.171875 -55.847656 17.285156 -54.53125 15.828125 -52.78125 C 14.367188 -51.039062 13.640625 -48.832031 13.640625 -46.15625 C 13.796875 -43.632812 14.664062 -41.5625 16.25 -39.9375 C 17.832031 -38.3125 19.941406 -36.972656 22.578125 -35.921875 C 25.222656 -34.867188 28.207031 -33.894531 31.53125 -33 C 34.21875 -32.351562 36.71875 -31.601562 39.03125 -30.75 C 41.34375 -29.894531 43.367188 -28.816406 45.109375 -27.515625 C 46.859375 -26.222656 48.238281 -24.597656 49.25 -22.640625 C 50.269531 -20.691406 50.78125 -18.257812 50.78125 -15.34375 C 50.78125 -11.9375 49.863281 -8.992188 48.03125 -6.515625 C 46.207031 -4.035156 43.691406 -2.125 40.484375 -0.78125 C 37.273438 0.550781 33.601562 1.21875 29.46875 1.21875 C 25.25 1.21875 21.191406 0.367188 17.296875 -1.328125 C 13.398438 -3.035156 9.867188 -5.835938 6.703125 -9.734375 Z M 6.703125 -9.734375 "/></g></g></g><g clip-path="url(#36ebb8a2d4)"><path fill="#000000" d="M 495.160156 292.191406 C 410.890625 312.011719 394.820312 328.082031 374.996094 412.351562 C 355.179688 328.078125 339.109375 312.007812 254.839844 292.191406 C 339.109375 272.367188 355.179688 256.296875 375.003906 172.027344 C 394.820312 256.296875 410.890625 272.367188 495.160156 292.191406 Z M 495.160156 292.191406 " fill-opacity="1" fill-rule="nonzero"/></g><g fill="#000000" fill-opacity="1"><g transform="translate(35.83937, 413.156241)"><g><path d="M 191.015625 71.484375 C 182.554688 71.222656 174.875 69.789062 167.96875 67.1875 C 161.070312 64.582031 154.890625 61.066406 149.421875 56.640625 C 143.953125 52.210938 139.226562 47.066406 135.25 41.203125 C 131.28125 35.347656 127.960938 29.066406 125.296875 22.359375 C 122.628906 15.660156 120.644531 8.757812 119.34375 1.65625 C 118.039062 -5.4375 117.390625 -12.4375 117.390625 -19.34375 L 117.390625 -52.34375 C 117.390625 -71.09375 112.925781 -84.695312 104 -93.15625 C 95.082031 -101.625 81.445312 -105.925781 63.09375 -106.0625 L 63.09375 -134.375 C 81.445312 -134.375 95.082031 -138.570312 104 -146.96875 C 112.925781 -155.375 117.390625 -169.015625 117.390625 -187.890625 L 117.390625 -221.09375 C 117.390625 -228 117.972656 -235 119.140625 -242.09375 C 120.316406 -249.1875 122.140625 -256.085938 124.609375 -262.796875 C 127.085938 -269.503906 130.242188 -275.785156 134.078125 -281.640625 C 137.921875 -287.503906 142.578125 -292.648438 148.046875 -297.078125 C 153.515625 -301.503906 159.796875 -305.019531 166.890625 -307.625 C 173.992188 -310.226562 182.035156 -311.660156 191.015625 -311.921875 L 195.125 -289.453125 C 185.75 -289.191406 178.289062 -286.976562 172.75 -282.8125 C 167.21875 -278.644531 163.050781 -273.335938 160.25 -266.890625 C 157.457031 -260.453125 155.671875 -253.195312 154.890625 -245.125 C 154.109375 -237.050781 153.71875 -229.039062 153.71875 -221.09375 L 153.71875 -187.890625 C 153.582031 -172.265625 149.929688 -158.5625 142.765625 -146.78125 C 135.609375 -135 124.476562 -126.046875 109.375 -119.921875 C 124.476562 -113.929688 135.609375 -105.046875 142.765625 -93.265625 C 149.929688 -81.484375 153.582031 -67.84375 153.71875 -52.34375 L 153.71875 -19.34375 C 153.71875 -11.269531 154.367188 -3.226562 155.671875 4.78125 C 156.972656 12.789062 159.21875 20.019531 162.40625 26.46875 C 165.59375 32.914062 169.820312 38.222656 175.09375 42.390625 C 180.375 46.554688 187.050781 48.769531 195.125 49.03125 Z M 191.015625 71.484375 "/></g></g></g><g fill="#000000" fill-opacity="1"><g transform="translate(472.150684, 413.156241)"><g><path d="M 63.09375 49.03125 C 71.03125 48.769531 77.664062 46.554688 83 42.390625 C 88.34375 38.222656 92.609375 32.914062 95.796875 26.46875 C 98.992188 20.019531 101.273438 12.789062 102.640625 4.78125 C 104.003906 -3.226562 104.6875 -11.269531 104.6875 -19.34375 L 104.6875 -52.34375 C 104.6875 -67.84375 108.265625 -81.484375 115.421875 -93.265625 C 122.585938 -105.046875 133.722656 -113.929688 148.828125 -119.921875 C 133.722656 -126.046875 122.585938 -135 115.421875 -146.78125 C 108.265625 -158.5625 104.6875 -172.265625 104.6875 -187.890625 L 104.6875 -221.09375 C 104.6875 -229.039062 104.265625 -237.050781 103.421875 -245.125 C 102.578125 -253.195312 100.753906 -260.453125 97.953125 -266.890625 C 95.148438 -273.335938 91.015625 -278.644531 85.546875 -282.8125 C 80.078125 -286.976562 72.65625 -289.191406 63.28125 -289.453125 L 67.1875 -311.921875 C 76.175781 -311.660156 84.21875 -310.226562 91.3125 -307.625 C 98.40625 -305.019531 104.6875 -301.503906 110.15625 -297.078125 C 115.625 -292.648438 120.28125 -287.503906 124.125 -281.640625 C 127.96875 -275.785156 131.125 -269.503906 133.59375 -262.796875 C 136.070312 -256.085938 137.894531 -249.1875 139.0625 -242.09375 C 140.238281 -235 140.828125 -228 140.828125 -221.09375 L 140.828125 -187.890625 C 140.828125 -169.015625 145.316406 -155.375 154.296875 -146.96875 C 163.285156 -138.570312 176.894531 -134.375 195.125 -134.375 L 195.125 -106.0625 C 176.894531 -105.925781 163.285156 -101.625 154.296875 -93.15625 C 145.316406 -84.695312 140.828125 -71.09375 140.828125 -52.34375 L 140.828125 -19.34375 C 140.828125 -8.925781 139.394531 1.585938 136.53125 12.203125 C 133.664062 22.816406 129.203125 32.484375 123.140625 41.203125 C 117.085938 49.929688 109.4375 57.09375 100.1875 62.6875 C 90.945312 68.289062 79.945312 71.222656 67.1875 71.484375 Z M 63.09375 49.03125 "/></g></g></g></svg>